<mxfile host="app.diagrams.net" modified="2024-02-04T13:21:04.502Z" agent="Mozilla/5.0 (Macintosh; Intel Mac OS X 10.15; rv:122.0) Gecko/20100101 Firefox/122.0" version="23.1.1" etag="4pbPO282pEvlCV5cYI-g" type="github">
  <diagram name="Page-1" id="SDlIma4HPc-ocXyDrgKr">
    <mxGraphModel>
      <root>
        <mxCell id="0" />
        <mxCell id="1" parent="0" />
      </root>
    </mxGraphModel>
  </diagram>
</mxfile>
